<?xml version="1.0" standalone="no"?>
<!DOCTYPE svg PUBLIC "-//W3C//DTD SVG 20010904//EN"
 "http://www.w3.org/TR/2001/REC-SVG-20010904/DTD/svg10.dtd">
<svg version="1.0" xmlns="http://www.w3.org/2000/svg"
 width="1920.000000pt" height="1920.000000pt" viewBox="0 0 1920.000000 1920.000000"
 preserveAspectRatio="xMidYMid meet">

<g transform="translate(0.000000,1920.000000) scale(0.100000,-0.100000)"
fill="#000000" stroke="none">
<path d="M4260 15645 c-178 -50 -321 -192 -359 -356 -7 -29 -11 -887 -11
-2517 l0 -2472 -49 -98 c-153 -306 -284 -718 -346 -1082 -44 -263 -50 -342
-50 -672 l0 -316 -50 -6 c-27 -3 -407 -38 -844 -76 -767 -67 -795 -70 -836
-95 -73 -42 -104 -139 -71 -218 18 -45 78 -95 123 -103 28 -5 1367 104 1707
139 17 2 23 -16 51 -148 18 -82 42 -189 55 -237 13 -48 22 -89 19 -92 -2 -2
-166 -29 -364 -61 -1151 -181 -1226 -194 -1260 -215 -127 -78 -98 -282 46
-320 44 -12 5 -18 1222 176 257 41 471 74 476 74 4 0 27 -44 51 -97 23 -54 82
-176 131 -272 49 -96 88 -175 86 -176 -1 -1 -346 -88 -767 -194 -519 -131
-778 -200 -807 -217 -46 -27 -83 -90 -83 -142 0 -38 23 -98 48 -125 26 -29 87
-57 124 -57 18 0 177 36 353 81 176 44 548 139 828 209 l507 128 114 -151
c509 -675 1189 -1229 2016 -1643 820 -410 1682 -645 2680 -731 271 -23 929
-23 1200 0 998 86 1860 321 2680 731 827 414 1507 968 2016 1643 l114 151 472
-119 c260 -66 633 -160 828 -209 196 -50 370 -90 388 -90 37 0 98 28 124 57
25 27 48 87 48 125 0 52 -37 115 -83 142 -29 17 -288 86 -807 217 -421 106
-766 193 -767 194 -2 1 40 84 91 186 52 101 111 223 131 272 21 48 41 87 46
87 5 0 219 -33 476 -74 1217 -194 1178 -188 1222 -176 144 38 173 242 46 320
-34 21 -109 34 -1260 215 -198 32 -362 59 -364 61 -3 3 6 44 19 92 13 48 37
155 55 237 28 132 34 150 51 148 340 -35 1679 -144 1707 -139 45 8 105 58 123
103 33 79 2 176 -71 218 -41 25 -69 28 -836 95 -437 38 -816 73 -844 76 l-50
6 0 316 c0 368 -18 553 -86 862 -64 290 -188 647 -310 892 l-49 98 0 2472 c0
1630 -4 2488 -11 2517 -18 79 -62 154 -129 222 -104 105 -239 157 -377 145
-125 -10 -72 17 -975 -504 -269 -155 -705 -407 -970 -561 -266 -153 -719 -415
-1008 -581 -289 -167 -686 -396 -882 -510 l-358 -206 -102 12 c-533 65 -1263
65 -1796 0 l-102 -12 -358 206 c-196 114 -548 317 -782 452 -234 135 -729 421
-1100 635 -371 214 -810 468 -975 563 -649 375 -800 461 -854 481 -74 27 -199
34 -271 14z m738 -684 c323 -186 835 -481 1137 -656 755 -436 729 -421 1385
-800 322 -186 673 -388 780 -450 107 -62 209 -115 225 -119 17 -4 107 2 200
13 349 40 456 46 875 46 419 0 526 -6 875 -46 94 -11 184 -17 200 -13 17 4
118 57 225 119 107 62 458 264 780 450 656 379 630 364 1385 800 1753 1012
1722 995 1762 995 49 0 95 -29 116 -73 16 -32 17 -220 17 -2527 l0 -2491 61
-127 c204 -424 323 -835 370 -1287 15 -137 17 -611 3 -625 -5 -5 -190 8 -445
30 -459 41 -471 41 -530 -1 -111 -78 -78 -267 54 -308 18 -5 221 -26 452 -47
231 -20 421 -37 423 -39 8 -7 -98 -439 -111 -452 -1 -1 -243 36 -536 83 -464
73 -539 83 -570 73 -55 -18 -92 -48 -112 -93 -44 -98 -7 -198 89 -239 20 -9
129 -30 242 -47 358 -55 753 -120 757 -124 10 -10 -226 -469 -256 -499 -4 -4
-217 44 -473 108 -430 108 -467 116 -506 106 -83 -23 -132 -88 -132 -176 0
-55 18 -92 63 -132 30 -26 77 -40 430 -129 218 -54 397 -102 397 -106 0 -4
-37 -53 -82 -110 -399 -504 -923 -948 -1523 -1293 -825 -474 -1753 -757 -2795
-852 -277 -25 -983 -25 -1260 0 -246 23 -563 68 -795 113 -1451 285 -2716
1014 -3523 2032 -45 57 -82 106 -82 110 0 4 177 51 394 106 346 86 399 102
430 128 47 39 66 76 66 133 0 88 -49 153 -132 176 -39 10 -76 2 -507 -106
-442 -111 -466 -116 -479 -98 -48 65 -259 480 -249 490 4 3 416 70 757 123
113 17 222 38 242 47 96 41 133 141 89 239 -20 45 -57 75 -112 93 -30 10 -104
1 -545 -69 -280 -44 -521 -83 -535 -86 -20 -4 -28 0 -32 13 -51 177 -112 432
-105 438 2 2 192 19 423 39 231 21 434 42 452 47 47 15 83 47 104 93 46 102
-6 216 -112 246 -21 6 -170 -3 -468 -30 -255 -22 -440 -35 -445 -30 -14 14
-12 488 3 625 47 452 163 852 370 1288 l61 128 0 2491 c0 2305 1 2493 17 2525
9 20 30 44 47 54 69 42 61 46 694 -320z"/>
<path d="M7000 9837 c-202 -69 -328 -218 -361 -427 -35 -227 103 -467 319
-555 348 -142 723 110 723 485 -1 237 -151 437 -380 504 -82 24 -220 21 -301
-7z"/>
<path d="M11880 9837 c-89 -30 -152 -69 -214 -132 -156 -158 -192 -405 -91
-606 122 -240 414 -347 667 -244 216 88 354 328 319 555 -33 211 -166 367
-370 430 -89 28 -224 27 -311 -3z"/>
<path d="M9185 8040 c-159 -51 -258 -233 -214 -395 16 -58 346 -629 397 -686
l42 -47 -20 -54 c-86 -232 -310 -405 -585 -453 -411 -71 -806 131 -919 469
-10 27 -21 89 -25 138 -10 103 -37 154 -97 183 -46 22 -121 22 -161 2 -42 -22
-80 -70 -93 -118 -23 -83 24 -317 88 -444 149 -296 447 -510 810 -582 130 -25
356 -23 492 6 253 54 497 192 641 364 28 34 55 62 59 62 4 0 31 -28 59 -62
224 -268 643 -425 1025 -384 409 44 752 267 918 596 64 127 111 361 88 444
-13 48 -51 96 -93 118 -40 20 -115 20 -161 -2 -60 -29 -87 -80 -97 -183 -14
-148 -62 -259 -161 -367 -183 -200 -484 -292 -783 -240 -275 48 -499 221 -585
453 l-20 54 42 47 c51 57 381 628 397 686 32 119 -16 261 -116 345 -21 17 -67
39 -102 50 -58 18 -92 20 -415 19 -317 0 -357 -2 -411 -19z"/>
</g>
</svg>
